<svg width="576" height="417" viewBox="0 0 576 417" fill="none" xmlns="http://www.w3.org/2000/svg">
<g clip-path="url(#clip0)">
<path d="M85.3914 295.599C84.9188 294.883 84.2951 294.279 83.5642 293.83C82.8333 293.381 82.013 293.098 81.1611 293.001C80.3092 292.904 79.4464 292.995 78.6335 293.268C77.8205 293.541 77.0772 293.989 76.4559 294.581L57.9355 285.009L59.0868 295.792L76.4976 303.229C77.5594 304.208 78.9431 304.763 80.3865 304.789C81.8298 304.815 83.2325 304.31 84.3288 303.369C85.425 302.429 86.1387 301.119 86.3345 299.686C86.5304 298.254 86.1948 296.8 85.3914 295.599H85.3914Z" fill="#A0616A"/>
<path d="M68.9322 299.94C68.597 300.094 68.2333 300.175 67.8646 300.179C67.496 300.183 67.1306 300.109 66.7923 299.963L49.2005 292.321C43.1855 289.71 38.3226 284.999 35.5165 279.066L26.2681 259.518C25.5856 258.64 25.0826 257.636 24.7879 256.563C24.4932 255.49 24.4126 254.37 24.5507 253.266C24.6887 252.162 25.0428 251.096 25.5926 250.129C26.1424 249.162 26.8772 248.313 27.7549 247.631C28.6326 246.948 29.636 246.446 30.7078 246.152C31.7795 245.858 32.8986 245.779 34.001 245.919C35.1034 246.058 36.1675 246.414 37.1325 246.966C38.0975 247.518 38.9444 248.254 39.6247 249.134L55.8812 279.335L70.8919 290.69C71.3216 291.016 71.6407 291.467 71.8062 291.981C71.9717 292.495 71.9756 293.047 71.8173 293.564L70.344 298.329C70.1858 298.84 69.8757 299.29 69.4553 299.62C69.2941 299.747 69.1185 299.854 68.9322 299.94V299.94Z" fill="#CCCCCC"/>
<path d="M25.8611 236.529C33.7725 236.529 40.1861 230.107 40.1861 222.185C40.1861 214.264 33.7725 207.842 25.8611 207.842C17.9496 207.842 11.5361 214.264 11.5361 222.185C11.5361 230.107 17.9496 236.529 25.8611 236.529Z" fill="#A0616A"/>
<path d="M31.6635 410.352L38.8134 410.351L42.2155 382.734L31.6617 382.735L31.6635 410.352Z" fill="#A0616A"/>
<path d="M52.6039 416.999L30.1313 417L30.1309 408.306L43.9209 408.305C46.2237 408.305 48.4322 409.221 50.0606 410.851C51.689 412.482 52.6038 414.693 52.6039 416.999L52.6039 416.999Z" fill="#2F2E41"/>
<path d="M8.33391 410.352L15.4838 410.351L18.8859 382.734L8.33216 382.735L8.33391 410.352Z" fill="#A0616A"/>
<path d="M29.2743 416.999L6.8017 417L6.8013 408.306L20.5913 408.305C22.8941 408.305 25.1026 409.221 26.731 410.851C28.3594 412.482 29.2742 414.693 29.2744 416.999L29.2743 416.999Z" fill="#2F2E41"/>
<path d="M5.83693 402.447C5.59056 402.165 5.40715 401.834 5.29902 401.475C5.19089 401.117 5.16051 400.739 5.20994 400.368L17.729 306.351L48.8323 311.64L52.1518 309.646L43.568 398.85C43.4965 399.452 43.2199 400.011 42.7847 400.433C42.3495 400.855 41.7823 401.113 41.1789 401.165L31.7609 401.951C31.3865 401.982 31.0097 401.933 30.656 401.806C30.3024 401.679 29.9801 401.477 29.711 401.214C29.4419 400.952 29.2322 400.634 29.0962 400.284C28.9602 399.933 28.901 399.557 28.9226 399.181L31.3609 356.699C31.3652 356.627 31.3426 356.556 31.2975 356.499C31.2524 356.443 31.188 356.405 31.1167 356.394C31.0455 356.382 30.9724 356.397 30.9117 356.436C30.8511 356.476 30.807 356.536 30.7882 356.606L18.725 401.399C18.5742 401.957 18.2444 402.449 17.7864 402.801C17.3285 403.152 16.7679 403.343 16.191 403.344H7.81164C7.43765 403.344 7.06797 403.264 6.72739 403.109C6.38681 402.954 6.08321 402.728 5.83693 402.447V402.447Z" fill="#2F2E41"/>
<path d="M27.3774 312.932C27.0204 312.609 26.5614 312.42 26.0802 312.4C25.5991 312.38 25.1261 312.529 24.7434 312.822L18.525 317.665C18.1866 317.93 17.7885 318.107 17.3659 318.181C16.9432 318.255 16.5087 318.225 16.1006 318.092C15.6925 317.959 15.3232 317.728 15.0252 317.418C14.7272 317.109 14.5095 316.731 14.3913 316.318C11.3411 305.622 4.43052 278.697 6.13296 259.747C7.09796 249.006 16.3613 240.842 26.7826 241.527C33.9072 242.003 38.5943 246.118 40.7138 253.759C45.9178 272.519 51.6369 306.93 52.7305 313.638C52.8168 314.158 52.744 314.693 52.5216 315.171C52.2993 315.649 51.9377 316.049 51.4844 316.318C48.5422 318.086 45.1806 319.034 41.749 319.061C37.5969 319.061 32.6183 317.613 27.3774 312.932Z" fill="#CCCCCC"/>
<path d="M29.7237 319.605C29.7933 318.75 29.6747 317.889 29.3763 317.084C29.0778 316.279 28.6068 315.55 27.9963 314.947C27.3858 314.344 26.6507 313.883 25.8428 313.595C25.035 313.307 24.1739 313.201 23.3204 313.282L14.6466 294.306L8.90659 303.503L18.0234 320.113C18.2554 321.539 19.002 322.831 20.1217 323.744C21.2414 324.656 22.6565 325.125 24.0987 325.063C25.5409 325 26.9101 324.41 27.9468 323.404C28.9835 322.398 29.6158 321.047 29.7237 319.605Z" fill="#A0616A"/>
<path d="M14.0974 312.85C13.7388 312.764 13.4024 312.604 13.1098 312.379C12.8173 312.154 12.5753 311.87 12.3995 311.546L3.26646 294.662C0.143089 288.89 -0.780138 282.179 0.668512 275.776L5.43852 254.68C5.44284 253.568 5.6661 252.467 6.09551 251.441C6.52493 250.415 7.15209 249.483 7.94115 248.7C8.7302 247.917 9.66567 247.297 10.6941 246.876C11.7225 246.455 12.8237 246.241 13.9347 246.247C15.0457 246.252 16.1448 246.477 17.169 246.908C18.1933 247.339 19.1226 247.968 19.904 248.759C20.6854 249.55 21.3034 250.487 21.7228 251.517C22.1422 252.547 22.3547 253.65 22.3482 254.763L16.5266 288.573L21.3405 306.782C21.4773 307.305 21.4507 307.857 21.2641 308.363C21.0776 308.87 20.7401 309.307 20.2973 309.616L16.2012 312.455C15.7618 312.759 15.2402 312.922 14.706 312.922C14.501 312.922 14.2967 312.898 14.0974 312.85V312.85Z" fill="#CCCCCC"/>
<path opacity="0.2" d="M21.1862 269.021L15.937 291.213L23.5191 309.902L18.27 291.797L21.1862 269.021Z" fill="black"/>
<path d="M17.6865 233.98C16.4123 234.004 15.146 233.775 13.9608 233.305C13.4393 233.104 12.898 232.939 12.3775 232.737C7.78057 230.959 4.75241 226.057 4.64395 221.124C4.5355 216.19 7.08695 211.402 10.8757 208.246C14.6644 205.091 19.5717 203.47 24.4856 203.096C29.7786 202.692 35.7387 204.036 38.6964 208.45C39.4837 209.625 40.0343 211.051 39.5678 212.469C39.428 212.897 39.1785 213.281 38.8441 213.582C37.5232 214.759 36.2064 213.874 34.8599 213.796C33.0091 213.688 31.3468 215.189 30.7493 216.946C30.1519 218.703 30.4149 220.638 30.8973 222.43C31.2648 223.509 31.4965 224.629 31.587 225.765C31.6259 226.334 31.5189 226.905 31.2761 227.421C31.0334 227.938 30.6628 228.384 30.1997 228.717C29.0432 229.417 27.5244 229.012 26.3672 228.313C25.21 227.614 24.2102 226.642 22.9602 226.128C21.7102 225.614 20.0309 225.728 19.3034 226.868C19.0722 227.283 18.9157 227.735 18.8411 228.205C18.1888 231.18 18.3388 231.005 17.6865 233.98L17.6865 233.98Z" fill="#2F2E41"/>
<path d="M441.707 134.603H87.6808C86.3323 134.604 85.0393 135.141 84.0858 136.096C83.1322 137.05 82.596 138.345 82.5948 139.695V379.911C82.596 381.261 83.1322 382.556 84.0858 383.51C85.0393 384.465 86.3323 385.002 87.6808 385.003H441.707C442.442 385.003 443.169 384.844 443.837 384.535C444.504 384.226 445.097 383.776 445.574 383.216C445.614 383.172 445.651 383.125 445.685 383.076C445.988 382.704 446.234 382.289 446.414 381.844C446.67 381.232 446.801 380.574 446.799 379.911V230.375H445.346V379.911C445.347 380.621 445.138 381.316 444.746 381.908C444.397 382.429 443.924 382.855 443.369 383.146C442.855 383.412 442.285 383.55 441.707 383.549H87.6808C86.7174 383.548 85.7938 383.164 85.1126 382.482C84.4313 381.8 84.0481 380.875 84.0469 379.911V139.695C84.0481 138.731 84.4313 137.806 85.1126 137.124C85.7938 136.442 86.7174 136.058 87.6808 136.057H441.707C442.671 136.057 443.596 136.44 444.279 137.122C444.961 137.804 445.345 138.73 445.346 139.695V171.974H446.799V139.695C446.797 138.344 446.26 137.049 445.305 136.094C444.351 135.139 443.057 134.603 441.707 134.603V134.603Z" fill="#3F3D56"/>
<path d="M446.068 155.016H83.3187V156.471H446.068V155.016Z" fill="#3F3D56"/>
<path d="M95.6769 149.891C98.0858 149.891 100.039 147.936 100.039 145.524C100.039 143.112 98.0858 141.156 95.6769 141.156C93.268 141.156 91.3152 143.112 91.3152 145.524C91.3152 147.936 93.268 149.891 95.6769 149.891Z" fill="#F50057"/>
<path d="M108.217 149.891C110.626 149.891 112.579 147.936 112.579 145.524C112.579 143.112 110.626 141.156 108.217 141.156C105.808 141.156 103.855 143.112 103.855 145.524C103.855 147.936 105.808 149.891 108.217 149.891Z" fill="#CCCCCC"/>
<path d="M120.757 149.891C123.166 149.891 125.119 147.936 125.119 145.524C125.119 143.112 123.166 141.156 120.757 141.156C118.348 141.156 116.395 143.112 116.395 145.524C116.395 147.936 118.348 149.891 120.757 149.891Z" fill="#CCCCCC"/>
<path d="M208.366 355.56C206.864 355.553 205.388 355.171 204.071 354.449C202.755 353.727 201.638 352.687 200.824 351.424C200.009 350.161 199.522 348.715 199.406 347.216C199.291 345.717 199.551 344.212 200.162 342.839L210.553 319.625C202.369 312.377 195.82 303.467 191.341 293.489C186.862 283.511 184.555 272.692 184.575 261.752C184.575 219.011 219.301 184.238 261.986 184.238C304.672 184.238 339.398 219.011 339.398 261.752C339.398 304.492 304.672 339.266 261.986 339.266C254.519 339.258 247.093 338.163 239.941 336.014L213.421 353.991C211.931 355.01 210.17 355.556 208.366 355.56ZM261.986 195.054C248.172 195.046 234.697 199.341 223.429 207.345C212.162 215.349 203.66 226.664 199.103 239.723C194.546 252.781 194.158 266.936 197.995 280.225C201.831 293.514 209.701 305.278 220.514 313.888L223.788 316.502L212.607 341.482L238.265 324.089L240.798 324.941C249.95 328.02 259.661 329.069 269.258 328.016C278.855 326.963 288.109 323.833 296.378 318.843C304.647 313.853 311.734 307.122 317.146 299.117C322.559 291.111 326.169 282.023 327.725 272.483C329.282 262.942 328.748 253.176 326.16 243.862C323.572 234.548 318.993 225.909 312.74 218.544C306.486 211.179 298.708 205.263 289.944 201.207C281.181 197.15 271.641 195.051 261.986 195.054Z" fill="#009688"/>
<path d="M261.986 268.962C267.952 268.962 272.788 264.12 272.788 258.146C272.788 252.173 267.952 247.331 261.986 247.331C256.021 247.331 251.185 252.173 251.185 258.146C251.185 264.12 256.021 268.962 261.986 268.962Z" fill="#F50057" fill-opacity="0.7"/>
<path d="M231.382 268.962C237.347 268.962 242.183 264.12 242.183 258.146C242.183 252.173 237.347 247.331 231.382 247.331C225.416 247.331 220.58 252.173 220.58 258.146C220.58 264.12 225.416 268.962 231.382 268.962Z" fill="#F50057" fill-opacity="0.7"/>
<path d="M292.591 268.962C298.556 268.962 303.393 264.12 303.393 258.146C303.393 252.173 298.556 247.331 292.591 247.331C286.625 247.331 281.789 252.173 281.789 258.146C281.789 264.12 286.625 268.962 292.591 268.962Z" fill="#F50057" fill-opacity="0.7"/>
<path d="M533.613 215.338H430.963C429.725 215.338 428.539 214.845 427.663 213.969C426.788 213.093 426.297 211.905 426.297 210.665C426.297 209.426 426.788 208.238 427.663 207.362C428.539 206.486 429.725 205.993 430.963 205.993H533.613C534.85 205.993 536.037 206.486 536.912 207.362C537.787 208.238 538.279 209.426 538.279 210.665C538.279 211.905 537.787 213.093 536.912 213.969C536.037 214.845 534.85 215.338 533.613 215.338Z" fill="#CCCCCC"/>
<path d="M466.54 195.481H430.963C429.725 195.481 428.539 194.989 427.663 194.113C426.788 193.237 426.297 192.048 426.297 190.809C426.297 189.57 426.788 188.382 427.663 187.505C428.539 186.629 429.725 186.137 430.963 186.137H466.54C467.778 186.137 468.965 186.629 469.84 187.505C470.715 188.382 471.206 189.57 471.206 190.809C471.206 192.048 470.715 193.237 469.84 194.113C468.965 194.989 467.778 195.481 466.54 195.481Z" fill="#CCCCCC"/>
<path d="M384.469 221.031C395.421 221.031 404.299 212.141 404.299 201.174C404.299 190.208 395.421 181.318 384.469 181.318C373.517 181.318 364.639 190.208 364.639 201.174C364.639 212.141 373.517 221.031 384.469 221.031Z" fill="#009688"/>
<path d="M543.902 170.806H359.015C356.387 170.809 353.867 171.857 352.008 173.718C350.15 175.579 349.104 178.102 349.1 180.734V221.615C349.104 224.247 350.15 226.77 352.008 228.631C353.867 230.492 356.387 231.539 359.015 231.543H543.902C546.531 231.539 549.051 230.492 550.909 228.631C552.768 226.77 553.814 224.247 553.817 221.615V180.734C553.814 178.102 552.768 175.579 550.909 173.718C549.051 171.857 546.531 170.809 543.902 170.806V170.806ZM552.651 221.615C552.648 223.937 551.725 226.164 550.085 227.806C548.445 229.448 546.222 230.372 543.902 230.375H359.015C356.696 230.372 354.472 229.448 352.832 227.806C351.192 226.164 350.27 223.937 350.267 221.615V180.734C350.27 178.411 351.192 176.185 352.832 174.543C354.472 172.9 356.696 171.977 359.015 171.974H543.902C546.222 171.977 548.445 172.9 550.085 174.543C551.725 176.185 552.648 178.411 552.651 180.734V221.615Z" fill="#3F3D56"/>
<path d="M552.651 187.158C560.06 187.158 566.065 181.144 566.065 173.726C566.065 166.307 560.06 160.293 552.651 160.293C545.242 160.293 539.236 166.307 539.236 173.726C539.236 181.144 545.242 187.158 552.651 187.158Z" fill="#009688"/>
<path d="M552.239 181.28C552.184 181.226 552.141 181.161 552.112 181.09C552.083 181.02 552.068 180.944 552.068 180.867V166C552.068 165.846 552.129 165.697 552.239 165.588C552.348 165.478 552.496 165.417 552.651 165.417C552.806 165.417 552.954 165.478 553.063 165.588C553.173 165.697 553.234 165.846 553.234 166V180.867C553.234 180.982 553.2 181.095 553.136 181.191C553.072 181.287 552.981 181.362 552.874 181.406C552.768 181.451 552.65 181.462 552.537 181.44C552.424 181.417 552.32 181.362 552.239 181.28V181.28Z" fill="white"/>
<path d="M544.815 173.846C544.734 173.765 544.678 173.661 544.655 173.547C544.633 173.434 544.645 173.317 544.689 173.21C544.733 173.103 544.808 173.012 544.904 172.948C544.999 172.884 545.112 172.85 545.227 172.85H560.074C560.229 172.85 560.377 172.911 560.487 173.021C560.596 173.13 560.658 173.279 560.658 173.434C560.658 173.588 560.596 173.737 560.487 173.846C560.377 173.956 560.229 174.017 560.074 174.017H545.227C545.151 174.018 545.075 174.003 545.004 173.973C544.933 173.944 544.869 173.901 544.815 173.846V173.846Z" fill="white"/>
<path d="M568.71 352.262H540.708C540.708 353.068 511.85 353.722 511.85 353.722C511.397 354.063 510.984 354.455 510.619 354.89C509.523 356.199 508.924 357.854 508.927 359.562V360.73C508.928 362.666 509.697 364.522 511.064 365.891C512.431 367.26 514.285 368.029 516.218 368.03H568.71C570.643 368.028 572.496 367.259 573.863 365.89C575.23 364.521 575.998 362.665 576 360.73V359.562C575.997 357.627 575.228 355.771 573.862 354.403C572.495 353.034 570.642 352.264 568.71 352.262Z" fill="#3F3D56"/>
<path d="M546.544 367.74H538.961V416.797H546.544V367.74Z" fill="#3F3D56"/>
<path d="M568.123 416.53C568.123 417.35 556.634 416.847 542.461 416.847C528.288 416.847 516.798 417.35 516.798 416.53C516.798 415.71 528.288 409.205 542.461 409.205C556.634 409.205 568.123 415.71 568.123 416.53Z" fill="#3F3D56"/>
<path d="M545.185 286.521C554.204 286.521 561.516 279.2 561.516 270.168C561.516 261.137 554.204 253.816 545.185 253.816C536.166 253.816 528.854 261.137 528.854 270.168C528.854 279.2 536.166 286.521 545.185 286.521Z" fill="#2F2E41"/>
<path d="M504.545 410.078L497.394 410.077L493.992 382.46L504.546 382.461L504.545 410.078Z" fill="#FFB8B8"/>
<path d="M492.287 408.031H506.077V416.726H483.604C483.604 414.42 484.519 412.208 486.147 410.578C487.776 408.947 489.984 408.031 492.287 408.031V408.031Z" fill="#2F2E41"/>
<path d="M493.383 406.081L486.561 403.938L491.572 376.568L501.641 379.732L493.383 406.081Z" fill="#FFB8B8"/>
<path d="M482.299 400.455L495.457 404.589L492.857 412.884L471.415 406.147C472.105 403.947 473.639 402.111 475.68 401.044C477.721 399.976 480.102 399.764 482.299 400.455V400.455Z" fill="#2F2E41"/>
<path d="M549.56 347.474C549.395 346.083 549.098 344.71 548.673 343.375L547.338 341.693L543.861 337.324L543.71 337.33C543.453 337.342 542.386 337.4 540.735 337.529H540.718C539.697 337.61 538.449 337.715 537.032 337.85C536.658 337.891 536.268 337.926 535.865 337.967V344.064H543.156C543.51 344.064 543.852 344.194 544.118 344.428C544.384 344.662 544.556 344.985 544.602 345.337C544.608 345.401 544.614 345.459 544.614 345.524C544.614 345.911 544.46 346.282 544.187 346.556C543.913 346.83 543.542 346.984 543.156 346.984H500.812C500.273 347.342 499.755 347.732 499.261 348.152C497.769 349.308 496.694 350.919 496.199 352.742C493.726 363.628 489.218 383.928 487.888 389.891C487.791 390.34 487.813 390.807 487.951 391.245C488.089 391.683 488.339 392.078 488.675 392.391C488.923 392.622 489.215 392.803 489.533 392.922L494.793 394.896C495.01 394.976 495.235 395.029 495.464 395.054C495.493 395.054 495.517 395.059 495.546 395.059C495.6 395.064 495.655 395.066 495.709 395.065C496.241 395.063 496.76 394.9 497.198 394.598C497.636 394.296 497.973 393.869 498.165 393.372L502.317 382.462L508.716 365.643L511.247 358.991C514.18 359.68 538.793 365.135 547.034 356.345C547.847 355.479 548.489 354.467 548.924 353.361C549.618 351.481 549.836 349.459 549.56 347.474Z" fill="#2F2E41"/>
<path d="M556.698 349.063C556.57 348.543 556.424 348.006 556.255 347.463L551.443 341.412L551.292 341.418C550.988 341.436 549.548 341.512 547.337 341.693C544.83 341.903 541.324 342.242 537.387 342.773C537.271 342.785 537.148 342.802 537.032 342.82C536.647 342.872 536.256 342.925 535.865 342.983V344.064H543.156C543.51 344.064 543.852 344.194 544.118 344.428C544.384 344.662 544.556 344.985 544.602 345.337C544.608 345.401 544.614 345.46 544.614 345.524C544.614 345.911 544.46 346.282 544.187 346.556C543.913 346.83 543.542 346.984 543.156 346.984H517.388C516.263 347.352 515.178 347.737 514.139 348.152C508.692 350.313 504.615 353.145 503.781 356.83C503.501 358.068 503.192 359.429 502.865 360.877C501.652 366.262 500.177 372.855 498.841 378.847V378.853C498.567 380.091 498.293 381.294 498.03 382.462C496.916 387.485 495.972 391.742 495.47 393.979C495.458 394.043 495.447 394.102 495.435 394.166V394.178C495.377 394.63 495.433 395.09 495.598 395.515L495.604 395.521V395.527C495.764 395.934 496.025 396.293 496.362 396.572C496.588 396.758 496.842 396.906 497.115 397.01L502.376 398.984C502.669 399.094 502.978 399.151 503.291 399.153C503.73 399.154 504.161 399.044 504.545 398.832C505.096 398.533 505.523 398.046 505.747 397.46L517.073 367.699L518.829 363.079C521.762 363.768 546.375 369.217 554.616 360.434C556.244 358.669 557.173 356.37 557.229 353.969C557.287 352.316 557.108 350.664 556.698 349.063V349.063Z" fill="#2F2E41"/>
<path d="M556.051 297.541C555.958 297.43 555.858 297.319 555.754 297.214C554.2 295.579 552.282 294.335 550.156 293.585C548.03 292.835 545.757 292.6 543.523 292.898C541.574 293.155 539.644 293.535 537.743 294.037C535.288 294.669 533.041 295.931 531.223 297.699C529.806 299.074 528.69 300.729 527.946 302.559C527.202 304.389 526.846 306.353 526.901 308.328C526.924 309.128 526.93 309.946 526.918 310.775C526.918 311.16 526.912 311.552 526.907 311.943H532.657C532.907 311.942 533.156 311.972 533.398 312.031C534.1 312.199 534.725 312.598 535.172 313.165C535.62 313.732 535.864 314.433 535.865 315.155V342.323C536.256 342.434 536.647 342.545 537.032 342.662C537.154 342.703 537.271 342.738 537.387 342.773C537.521 342.814 537.656 342.855 537.784 342.896C538.968 343.264 540.125 343.653 541.254 344.064H543.156C543.51 344.064 543.852 344.193 544.118 344.428C544.384 344.662 544.556 344.985 544.602 345.337C544.999 345.494 545.384 345.652 545.763 345.81C547.11 346.37 548.387 346.931 549.56 347.474C551.14 348.198 552.546 348.888 553.724 349.489C554.094 349.678 554.504 349.778 554.92 349.781C555.466 349.779 555.997 349.603 556.436 349.279C556.527 349.211 556.615 349.139 556.698 349.063C557.01 348.77 557.246 348.405 557.386 348C557.525 347.595 557.563 347.162 557.497 346.738C556.895 342.151 556.72 337.517 556.973 332.897C557.136 329.014 557.486 325.031 557.941 321.182C558.186 319.097 558.46 317.053 558.746 315.085C559.02 313.204 559.311 311.4 559.597 309.695C559.972 307.532 559.847 305.312 559.233 303.206C558.618 301.099 557.53 299.161 556.051 297.541V297.541Z" fill="#009688"/>
<path d="M532.144 298.02C531.845 297.892 531.537 297.784 531.223 297.699C529.668 297.28 528.015 297.435 526.565 298.135C525.116 298.835 523.966 300.034 523.325 301.513L519.319 310.775L518.817 311.943H532.657C532.907 311.942 533.156 311.972 533.398 312.031L533.865 310.95L535.638 306.85C536.342 305.215 536.37 303.367 535.715 301.712C535.06 300.056 533.776 298.729 532.144 298.02V298.02Z" fill="#009688"/>
<path d="M544.588 288.338C552.499 288.338 558.913 281.916 558.913 273.994C558.913 266.072 552.499 259.65 544.588 259.65C536.677 259.65 530.263 266.072 530.263 273.994C530.263 281.916 536.677 288.338 544.588 288.338Z" fill="#FFB8B8"/>
<path d="M530.005 266.947C536.791 271.094 544.44 273.618 552.359 274.322L550.002 271.495C551.718 272.13 553.523 272.489 555.351 272.559C557.177 272.53 559.089 271.826 560.126 270.321C560.588 269.573 560.862 268.723 560.926 267.846C560.989 266.968 560.84 266.088 560.49 265.281C559.772 263.671 558.655 262.272 557.244 261.216C554.743 259.235 551.792 257.905 548.653 257.343C545.514 256.781 542.285 257.006 539.254 257.997C537.175 258.619 535.313 259.815 533.881 261.448C532.523 263.126 529.909 264.62 530.604 266.664L530.005 266.947Z" fill="#2F2E41"/>
<path d="M546.997 255.371C542.479 250.784 537.011 247.243 530.979 245C527.107 243.564 522.893 242.676 518.845 243.492C514.797 244.308 510.969 247.112 509.839 251.089C508.916 254.34 509.869 257.842 511.303 260.903C512.736 263.964 514.649 266.803 515.808 269.979C516.99 273.219 517.346 276.703 516.842 280.116C516.339 283.528 514.992 286.761 512.924 289.52C510.857 292.28 508.134 294.478 505.002 295.916C501.871 297.354 498.43 297.987 494.993 297.755C498.97 298.289 502.636 300.161 506.524 301.157C510.411 302.153 515 302.086 517.889 299.297C520.946 296.346 521.007 291.549 520.859 287.3C520.639 280.984 520.42 274.668 520.2 268.352C520.088 265.131 519.992 261.806 521.152 258.8C522.312 255.794 525.069 253.161 528.288 253.188C530.727 253.209 532.887 254.689 534.843 256.148C536.799 257.607 538.87 259.164 541.3 259.381C543.73 259.598 546.504 257.798 546.322 255.362L546.997 255.371Z" fill="#2F2E41"/>
<path d="M558.746 315.085L550.569 315.307L549.974 321.06L549.84 322.391L537.032 328.15L535.865 328.675V338.913L537.032 338.58L540.718 337.529H540.735L556.972 332.898L557.159 332.845C558.471 332.466 559.626 331.673 560.452 330.584C561.278 329.495 561.731 328.168 561.743 326.8L561.784 320.008L561.819 315.003L558.746 315.085Z" fill="#FFB8B8"/>
<path d="M561.405 303.708C561.296 301.93 560.486 300.268 559.153 299.088C557.821 297.908 556.074 297.307 554.299 297.416C552.523 297.525 550.863 298.336 549.684 299.671C548.506 301.005 547.905 302.754 548.014 304.532L548.906 319.109C548.93 319.492 549.039 319.866 549.223 320.203C549.408 320.54 549.664 320.833 549.974 321.059C550.467 321.427 551.075 321.608 551.688 321.568L557.941 321.182L559.836 321.065C560.182 321.048 560.52 320.961 560.831 320.81C561.141 320.658 561.418 320.445 561.644 320.183C561.695 320.128 561.741 320.069 561.784 320.008C562.155 319.511 562.337 318.899 562.297 318.28L561.405 303.708Z" fill="#009688"/>
<path d="M537.784 342.896H537.032V342.82C536.647 342.872 536.256 342.925 535.865 342.983V344.064H541.254C540.123 343.655 538.966 343.266 537.784 342.896ZM537.784 342.896H537.032V342.82C536.647 342.872 536.256 342.925 535.865 342.983V344.064H541.254C540.123 343.655 538.966 343.266 537.784 342.896ZM543.156 342.896H537.032V315.155C537.03 314.206 536.72 313.282 536.149 312.524C535.577 311.766 534.776 311.213 533.865 310.95C533.473 310.832 533.066 310.773 532.657 310.775H480.749C479.589 310.777 478.478 311.239 477.658 312.06C476.837 312.881 476.376 313.994 476.375 315.155V343.772C476.375 344.933 476.836 346.047 477.656 346.869C478.477 347.69 479.589 348.151 480.749 348.152H543.156C543.802 348.151 544.425 347.911 544.906 347.479C545.387 347.047 545.692 346.453 545.763 345.81C545.774 345.715 545.78 345.62 545.78 345.524C545.779 344.827 545.502 344.159 545.01 343.667C544.518 343.174 543.851 342.897 543.156 342.896V342.896ZM544.614 345.524C544.614 345.911 544.46 346.282 544.187 346.556C543.913 346.83 543.542 346.984 543.156 346.984H480.749C479.898 346.983 479.083 346.645 478.481 346.043C477.88 345.44 477.542 344.624 477.541 343.772V315.155C477.542 314.304 477.88 313.487 478.481 312.885C479.083 312.282 479.898 311.944 480.749 311.943H532.657C532.907 311.942 533.156 311.972 533.398 312.031C534.1 312.199 534.725 312.598 535.172 313.165C535.62 313.732 535.864 314.433 535.865 315.155V344.064H543.156C543.51 344.064 543.852 344.194 544.118 344.428C544.384 344.662 544.556 344.985 544.602 345.337C544.608 345.401 544.614 345.46 544.614 345.524V345.524ZM537.784 342.896H537.032V342.82C536.647 342.872 536.256 342.925 535.865 342.983V344.064H541.254C540.123 343.655 538.966 343.266 537.784 342.896Z" fill="#3F3D56"/>
<path d="M506.701 332.968C508.634 332.968 510.201 331.4 510.201 329.464C510.201 327.529 508.634 325.96 506.701 325.96C504.769 325.96 503.202 327.529 503.202 329.464C503.202 331.4 504.769 332.968 506.701 332.968Z" fill="#F50057"/>
<path d="M194.133 41.6798C194.12 41.9466 194.129 42.214 194.157 42.4796L175.843 57.8706L170.381 55.8905L166.319 63.7534L178.26 69.4449L198.283 46.9466C199.294 47.1303 200.337 47.0014 201.273 46.577C202.209 46.1527 202.994 45.4531 203.523 44.5712C204.052 43.6893 204.301 42.667 204.236 41.6402C204.171 40.6133 203.795 39.6306 203.159 38.8228C202.522 38.015 201.656 37.4203 200.673 37.1179C199.691 36.8154 198.64 36.8196 197.661 37.1297C196.681 37.4398 195.819 38.0413 195.189 38.8541C194.559 39.6669 194.19 40.6525 194.133 41.6798L194.133 41.6798Z" fill="#FFB8B8"/>
<path d="M169.57 67.5249L151.884 61.1328C150.26 60.5459 148.936 59.3373 148.202 57.7727C147.469 56.2081 147.386 54.4158 147.972 52.7899C148.558 51.1641 149.765 49.838 151.327 49.1033C152.89 48.3687 154.68 48.2856 156.304 48.8725L173.99 55.2646C174.258 55.3615 174.504 55.5102 174.714 55.7023C174.925 55.8945 175.096 56.1263 175.217 56.3845C175.338 56.6427 175.407 56.9223 175.42 57.2073C175.433 57.4922 175.39 57.777 175.294 58.0453L172.347 66.2191C172.151 66.7606 171.749 67.2021 171.228 67.4469C170.708 67.6917 170.111 67.7197 169.57 67.525V67.5249Z" fill="#CCCCCC"/>
<path d="M156.617 129.798L162.528 129.797L165.34 106.968L156.616 106.969L156.617 129.798Z" fill="#FFB8B8"/>
<path d="M173.927 135.292L155.351 135.293L155.35 128.107L166.75 128.106C168.653 128.106 170.479 128.863 171.825 130.211C173.171 131.558 173.927 133.386 173.927 135.292V135.292L173.927 135.292Z" fill="#2F2E41"/>
<path d="M142.01 122.152L146.845 125.556L162.258 108.501L155.123 103.477L142.01 122.152Z" fill="#FFB8B8"/>
<path d="M152.43 135.449L137.233 124.75L141.361 118.871L150.687 125.436C152.244 126.533 153.302 128.203 153.629 130.081C153.956 131.959 153.525 133.89 152.43 135.449V135.449L152.43 135.449Z" fill="#2F2E41"/>
<path d="M169.551 88.674C169.551 88.674 184.301 86.9313 181.654 96.5158C179.006 106.1 149.505 114.378 149.505 114.378L169.551 88.674Z" fill="#FFB8B8"/>
<path d="M159.398 39.7692C165.938 39.7692 171.24 34.4606 171.24 27.9121C171.24 21.3636 165.938 16.0549 159.398 16.0549C152.858 16.0549 147.557 21.3636 147.557 27.9121C147.557 34.4606 152.858 39.7692 159.398 39.7692Z" fill="#FFB8B8"/>
<path d="M121.635 112.415C114.897 104.559 112.539 92.5018 123.284 82.4736C125.938 80.0578 128.943 78.0597 132.196 76.5475L140.857 52.2963C141.756 49.7638 143.405 47.5662 145.584 45.9967C147.764 44.4272 150.369 43.5603 153.053 43.5118C155.659 43.3991 158.235 44.0971 160.429 45.5098C162.623 46.9224 164.326 48.9806 165.305 51.4014C166.362 53.8643 166.483 56.6296 165.645 59.1756C163.067 67.2146 159.681 74.9711 155.54 82.326L155.988 85.9133L177.878 87.8613L177.674 88.1937C177.567 88.3672 166.854 104.712 153.149 115.561C148.462 119.27 143.616 120.807 139.043 120.807C132.108 120.807 125.8 117.271 121.635 112.415Z" fill="#CCCCCC"/>
<path d="M119.569 31.632C121.664 29.1323 122.562 25.8628 123.285 22.6808C124.429 17.6462 125.314 12.4402 127.855 7.94734C130.396 3.45455 135.066 -0.268189 140.214 0.0151791C145.334 0.296929 149.472 4.42103 151.669 9.11344C152.201 8.90655 152.771 8.81386 153.341 8.84138C153.911 8.8689 154.469 9.01602 154.978 9.2732C156.562 10.1414 157.154 12.6092 155.836 13.8446C157.222 13.1837 158.732 12.8223 160.266 12.784C161.801 12.7457 163.327 13.0313 164.744 13.6222C166.567 14.3992 168.14 15.6644 169.291 17.2788C170.442 18.8933 171.126 20.7942 171.267 22.7726C171.322 23.5756 171.212 24.3814 170.944 25.1401C170.675 25.8987 170.254 26.5941 169.706 27.183C167.434 29.525 164.221 28.7172 161.364 28.1206C158.665 27.5571 155.378 27.4049 153.857 29.9797C153.258 31.0525 153.091 32.3139 153.389 33.5064C153.971 36.0766 155.871 37.8669 157.715 39.5804L158.017 40.1413C151.507 41.4124 144.398 36.9607 142.69 30.5434C140.983 24.1261 144.937 16.7228 151.215 14.582C150.797 14.595 150.384 14.4961 150.017 14.2954C149.65 14.0947 149.343 13.7996 149.128 13.4405C148.913 13.0815 148.798 12.6714 148.794 12.2529C148.791 11.8343 148.899 11.4223 149.107 11.0595C147.369 10.0846 145.403 9.59325 143.411 9.63642C140.168 9.84945 137.361 12.161 135.674 14.9421C133.986 17.7232 133.222 20.9513 132.447 24.1119C131.673 27.2726 130.835 30.4937 129.031 33.2003C127.781 35.0749 126.111 36.631 124.153 37.7445C122.196 38.858 120.006 39.498 117.758 39.6134C115.51 39.7289 113.266 39.3166 111.205 38.4095C109.145 37.5024 107.324 36.1256 105.889 34.3889C108.157 35.4899 110.722 35.8164 113.193 35.3185C115.664 34.8206 117.903 33.5257 119.569 31.632Z" fill="#2F2E41"/>
<path d="M206.542 63.9455C216.048 63.9455 223.754 56.2291 223.754 46.7103C223.754 37.1916 216.048 29.4751 206.542 29.4751C197.036 29.4751 189.329 37.1916 189.329 46.7103C189.329 56.2291 197.036 63.9455 206.542 63.9455Z" fill="#009688"/>
<path d="M206.013 56.403C205.943 56.3335 205.888 56.2509 205.85 56.16C205.813 56.0691 205.793 55.9716 205.794 55.8732V36.7976C205.794 36.5989 205.872 36.4083 206.013 36.2678C206.153 36.1273 206.343 36.0483 206.542 36.0483C206.74 36.0483 206.931 36.1273 207.071 36.2678C207.211 36.4083 207.29 36.5989 207.29 36.7976V55.8732C207.29 56.0214 207.246 56.1662 207.164 56.2894C207.082 56.4127 206.965 56.5087 206.828 56.5654C206.691 56.6221 206.541 56.637 206.396 56.6081C206.251 56.5792 206.117 56.5078 206.013 56.403H206.013Z" fill="white"/>
<path d="M196.487 46.8653C196.383 46.7605 196.312 46.627 196.283 46.4817C196.254 46.3363 196.269 46.1857 196.325 46.0488C196.382 45.9118 196.478 45.7948 196.601 45.7125C196.724 45.6302 196.869 45.5862 197.017 45.5862H216.067C216.265 45.5862 216.456 45.6651 216.596 45.8056C216.736 45.9462 216.815 46.1367 216.815 46.3355C216.815 46.5342 216.736 46.7248 216.596 46.8653C216.456 47.0058 216.265 47.0848 216.067 47.0848H197.017C196.918 47.0849 196.821 47.0656 196.73 47.0279C196.639 46.9903 196.557 46.935 196.487 46.8653Z" fill="white"/>
<path d="M194.727 58.2383C194.602 58.4743 194.496 58.7198 194.409 58.9725L171.298 65.1093L167.194 60.9924L160.18 66.3811L168.573 76.6149L196.247 64.7716C197.084 65.3681 198.083 65.6953 199.11 65.7096C200.138 65.7239 201.145 65.4247 201.999 64.8518C202.852 64.2788 203.511 63.4592 203.888 62.502C204.265 61.5449 204.342 60.4955 204.109 59.4934C203.876 58.4913 203.344 57.5841 202.583 56.8923C201.822 56.2006 200.869 55.7571 199.851 55.6208C198.832 55.4845 197.797 55.662 196.881 56.1295C195.966 56.5971 195.215 57.3326 194.727 58.2382L194.727 58.2383Z" fill="#FFB8B8"/>
<path d="M161.522 71.1786L148.226 57.8654C147.62 57.2606 147.139 56.5421 146.811 55.7509C146.482 54.9598 146.313 54.1115 146.312 53.2547C146.311 52.3979 146.479 51.5494 146.806 50.7577C147.134 49.966 147.613 49.2466 148.218 48.6408C148.823 48.0349 149.542 47.5545 150.333 47.227C151.123 46.8994 151.971 46.7312 152.826 46.7319C153.682 46.7327 154.529 46.9023 155.319 47.2312C156.109 47.5601 156.827 48.0418 157.431 48.6487L170.726 61.9619C170.928 62.1636 171.088 62.403 171.197 62.6666C171.306 62.9301 171.362 63.2126 171.362 63.4978C171.362 63.7831 171.306 64.0656 171.197 64.3291C171.088 64.5927 170.928 64.8321 170.726 65.0338L164.59 71.1787C164.183 71.5853 163.631 71.8137 163.056 71.8137C162.481 71.8137 161.929 71.5853 161.522 71.1787V71.1786Z" fill="#CCCCCC"/>
</g>
<defs>
<clipPath id="clip0">
<rect width="576" height="417" fill="white"/>
</clipPath>
</defs>
</svg>
