<svg width="426" height="320" viewBox="0 0 426 320" fill="none" xmlns="http://www.w3.org/2000/svg">
<g clip-path="url(#clip0)">
<path d="M396.733 131.48H0V320H396.733V131.48Z" fill="#009688"/>
<path d="M331.144 207.849H65.5889V320H331.144V207.849Z" fill="#F0F0F0"/>
<path d="M331.144 214.692H65.5889V215.76H331.144V214.692Z" fill="#3F3D56"/>
<path d="M70.3757 213.488C71.4304 213.488 72.2854 212.631 72.2854 211.575C72.2854 210.519 71.4304 209.662 70.3757 209.662C69.321 209.662 68.4659 210.519 68.4659 211.575C68.4659 212.631 69.321 213.488 70.3757 213.488Z" fill="#3F3D56"/>
<path d="M76.9234 213.488C77.9782 213.488 78.8332 212.631 78.8332 211.575C78.8332 210.519 77.9782 209.662 76.9234 209.662C75.8687 209.662 75.0137 210.519 75.0137 211.575C75.0137 212.631 75.8687 213.488 76.9234 213.488Z" fill="#3F3D56"/>
<path d="M83.4712 213.488C84.5259 213.488 85.3809 212.631 85.3809 211.575C85.3809 210.519 84.5259 209.662 83.4712 209.662C82.4164 209.662 81.5614 210.519 81.5614 211.575C81.5614 212.631 82.4164 213.488 83.4712 213.488Z" fill="#3F3D56"/>
<path d="M212.252 265.09L215.08 270.828L221.401 271.747L216.827 276.213L217.907 282.519L212.252 279.542L206.598 282.519L207.678 276.213L203.104 271.747L209.425 270.828L212.252 265.09Z" fill="#009688"/>
<path d="M237.689 265.09L240.516 270.828L246.837 271.747L242.263 276.213L243.343 282.519L237.689 279.542L232.034 282.519L233.114 276.213L228.54 271.747L234.861 270.828L237.689 265.09Z" fill="#009688"/>
<path d="M263.125 265.09L265.952 270.828L272.273 271.747L267.699 276.213L268.779 282.519L263.125 279.542L257.47 282.519L258.55 276.213L253.976 271.747L260.297 270.828L263.125 265.09Z" fill="#009688"/>
<path d="M288.561 265.09L291.388 270.828L297.709 271.747L293.135 276.213L294.215 282.519L288.561 279.542L282.906 282.519L283.986 276.213L279.412 271.747L285.733 270.828L288.561 265.09Z" fill="#009688"/>
<path d="M313.996 265.09L316.824 270.828L323.145 271.747L318.571 276.213L319.651 282.519L313.996 279.542L308.342 282.519L309.422 276.213L304.848 271.747L311.169 270.828L313.996 265.09Z" fill="#009688"/>
<path d="M187.168 240.96H83.7192V306.649H187.168V240.96Z" fill="#3F3D56"/>
<path opacity="0.1" d="M104.814 131.479L0 203.544V166.626L51.1167 131.479H104.814Z" fill="black"/>
<path opacity="0.1" d="M224.021 131.479L0 285.506V248.581L170.323 131.479H224.021Z" fill="black"/>
<path d="M60.5998 185.227L53.4196 177.518L61.1176 170.327L68.2978 178.036L60.5998 185.227ZM54.5641 177.558L60.6396 184.081L67.1533 177.996L61.0778 171.473L54.5641 177.558Z" fill="#F0F0F0"/>
<path d="M297.55 180.378H287.023V169.835H297.55V180.378ZM287.833 179.567H296.74V170.646H287.833V179.567Z" fill="#3F3D56"/>
<path d="M362.374 270.765C365.343 270.765 367.749 268.355 367.749 265.383C367.749 262.41 365.343 260 362.374 260C359.406 260 357 262.41 357 265.383C357 268.355 359.406 270.765 362.374 270.765Z" fill="#F50057"/>
<path d="M362.771 280.519C359.7 280.519 356.698 279.607 354.145 277.898C351.592 276.189 349.602 273.761 348.427 270.92C347.251 268.078 346.944 264.952 347.543 261.936C348.142 258.919 349.621 256.149 351.792 253.974C353.964 251.799 356.73 250.318 359.742 249.718C362.753 249.118 365.875 249.426 368.712 250.603C371.549 251.78 373.974 253.773 375.68 256.33C377.386 258.887 378.297 261.894 378.297 264.969C378.292 269.092 376.655 273.044 373.744 275.959C370.833 278.874 366.887 280.514 362.771 280.519ZM362.771 250.616C359.936 250.616 357.165 251.458 354.808 253.035C352.452 254.612 350.615 256.854 349.53 259.476C348.445 262.099 348.161 264.985 348.714 267.769C349.267 270.554 350.632 273.111 352.637 275.118C354.641 277.126 357.195 278.493 359.975 279.047C362.755 279.601 365.636 279.316 368.255 278.23C370.874 277.144 373.112 275.304 374.687 272.943C376.262 270.583 377.102 267.808 377.102 264.969C377.098 261.164 375.587 257.515 372.9 254.825C370.213 252.134 366.57 250.62 362.771 250.616Z" fill="#2F2E41"/>
<path d="M122.113 292.249C124.581 301.388 133.037 307.049 133.037 307.049C133.037 307.049 137.49 297.891 135.022 288.751C132.553 279.612 124.097 273.951 124.097 273.951C124.097 273.951 119.644 283.109 122.113 292.249Z" fill="#F50057"/>
<path d="M125.74 290.285C132.514 296.889 133.342 307.041 133.342 307.041C133.342 307.041 123.186 306.486 116.412 299.882C109.638 293.277 108.811 283.125 108.811 283.125C108.811 283.125 118.966 283.68 125.74 290.285Z" fill="#009688"/>
<path d="M144.571 292.249C142.102 301.388 133.646 307.049 133.646 307.049C133.646 307.049 129.193 297.891 131.662 288.751C134.13 279.612 142.586 273.951 142.586 273.951C142.586 273.951 147.039 283.109 144.571 292.249Z" fill="#F50057"/>
<path d="M140.943 290.285C134.169 296.889 133.342 307.041 133.342 307.041C133.342 307.041 143.497 306.486 150.271 299.882C157.045 293.277 157.873 283.125 157.873 283.125C157.873 283.125 147.717 283.68 140.943 290.285Z" fill="#009688"/>
<path d="M344.296 10.1777H302.427V59.0304H344.296V10.1777Z" fill="#F2F2F2"/>
<path d="M330.061 132.044L329.479 131.475C332.155 128.437 334.183 124.883 335.439 121.032C337.417 115.071 338.383 105.657 331.753 94.6589C324.97 83.4067 324.665 74.2673 325.603 68.5817C326.624 62.3952 329.229 58.9275 329.339 58.783L329.985 59.2773C329.959 59.3113 327.377 62.7606 326.397 68.7626C325.492 74.3038 325.808 83.2218 332.449 94.2379C339.249 105.517 338.241 115.193 336.199 121.324C333.986 127.967 330.22 131.88 330.061 132.044Z" fill="#3F3D56"/>
<path d="M360.555 59.4374H302.021V0.814209H360.555V59.4374ZM302.834 58.6231H359.742V1.62842H302.834V58.6231Z" fill="#3F3D56"/>
<path d="M349.987 17.9126H314.216V18.7268H349.987V17.9126Z" fill="#3F3D56"/>
<path d="M349.987 26.8689H314.216V27.6831H349.987V26.8689Z" fill="#3F3D56"/>
<path d="M349.987 35.8252H314.216V36.6394H349.987V35.8252Z" fill="#3F3D56"/>
<path d="M409.74 45.5957H367.872V94.4483H409.74V45.5957Z" fill="#F2F2F2"/>
<path d="M395.506 167.462L394.924 166.893C397.599 163.855 399.628 160.302 400.884 156.451C402.862 150.489 403.828 141.075 397.198 130.077C390.414 118.825 390.109 109.685 391.047 104C392.069 97.8134 394.674 94.3457 394.784 94.2012L395.43 94.6955C395.404 94.7295 392.822 98.1788 391.842 104.181C390.937 109.722 391.253 118.64 397.894 129.656C404.693 140.935 403.686 150.611 401.644 156.742C399.431 163.385 395.665 167.299 395.506 167.462Z" fill="#3F3D56"/>
<path d="M426 94.8556H367.466V36.2324H426V94.8556ZM368.279 94.0414H425.187V37.0466H368.279V94.0414Z" fill="#3F3D56"/>
<path d="M415.431 53.3308H379.66V54.145H415.431V53.3308Z" fill="#3F3D56"/>
<path d="M415.431 62.2871H379.66V63.1013H415.431V62.2871Z" fill="#3F3D56"/>
<path d="M415.431 71.2434H379.66V72.0576H415.431V71.2434Z" fill="#3F3D56"/>
<path d="M98.3702 9.36353H56.5019V58.2161H98.3702V9.36353Z" fill="#F2F2F2"/>
<path d="M84.1354 131.23L83.5537 130.661C86.2293 127.623 88.2573 124.069 89.5137 120.218C91.4915 114.257 92.4577 104.842 85.8277 93.8447C79.0442 82.5925 78.7389 73.4531 79.6771 67.7675C80.6983 61.581 83.3034 58.1133 83.4137 57.9688L84.0598 58.4631C84.0338 58.4971 81.4514 61.9464 80.4715 67.9484C79.5668 73.4896 79.8824 82.4076 86.5235 93.4237C93.3231 104.703 92.3158 114.379 90.2736 120.51C88.0608 127.153 84.2948 131.066 84.1354 131.23Z" fill="#3F3D56"/>
<path d="M114.63 58.6231H56.0954V0H114.63V58.6231ZM56.9084 57.8089H113.817V0.81421H56.9084V57.8089Z" fill="#3F3D56"/>
<path d="M104.061 17.0984H68.2901V17.9126H104.061V17.0984Z" fill="#3F3D56"/>
<path d="M104.061 26.0547H68.2901V26.8689H104.061V26.0547Z" fill="#3F3D56"/>
<path d="M104.061 35.011H68.2901V35.8252H104.061V35.011Z" fill="#3F3D56"/>
<path d="M190.83 149.065L193.658 154.803L199.979 155.722L195.405 160.188L196.485 166.494L190.83 163.517L185.176 166.494L186.256 160.188L181.682 155.722L188.003 154.803L190.83 149.065Z" fill="#F0F0F0"/>
<path d="M201.05 19.7083H201.05C210.819 19.7083 218.738 28.5101 218.738 39.3677V53.1623H214.502L212.05 48.0513L212.663 53.1623H185.434L183.205 48.5159L183.762 53.1623H180.696V42.331C180.696 29.8368 189.809 19.7083 201.05 19.7083Z" fill="#2F2E41"/>
<path d="M221.318 109.835L232.178 114.458L269.917 145.185C271.305 146.893 272.155 148.974 272.36 151.167C272.632 154.702 284.035 173.192 279.963 175.639C275.89 178.087 261.229 185.428 260.414 180.534C259.6 175.639 255.256 154.702 255.256 154.702L218.874 122.072L221.318 109.835Z" fill="#2F2E41"/>
<path d="M263.944 176.455L268.559 190.051C268.559 190.051 263.672 195.217 266.116 199.568V214.523H269.917L271.003 206.638C271.003 206.638 275.332 214.424 277.519 214.523C282.103 214.732 291.181 216.365 291.452 213.918C291.724 211.471 284.578 209.085 284.578 209.085L276.976 188.148L273.718 175.367L263.944 176.455Z" fill="#2F2E41"/>
<path d="M193.081 106.301C193.081 106.301 190.638 130.229 197.697 134.58C204.756 138.931 235.979 152.798 235.979 152.798C235.979 152.798 222.675 165.306 225.39 168.298C228.105 171.289 240.323 179.446 241.952 177.815C243.581 176.183 261.772 156.605 259.6 150.351C257.428 144.097 227.291 123.703 227.291 123.703L223.761 110.923L222.675 100.59L211.272 93.2485L193.081 106.301Z" fill="#2F2E41"/>
<path d="M205.52 50.5885C211.771 50.5885 216.839 45.5133 216.839 39.2527C216.839 32.9922 211.771 27.917 205.52 27.917C199.269 27.917 194.201 32.9922 194.201 39.2527C194.201 45.5133 199.269 50.5885 205.52 50.5885Z" fill="#FFB9B9"/>
<path d="M196.746 43.8958C196.746 43.8958 197.289 54.2286 188.873 57.4916C180.456 60.7546 209.779 81.9641 209.779 81.9641V58.3073C209.779 58.3073 205.978 54.2286 209.779 47.9745L196.746 43.8958Z" fill="#FFB9B9"/>
<path d="M178.691 92.4326L180.863 103.037L187.379 139.474C187.379 139.474 181.949 154.973 189.28 154.702C196.611 154.43 193.081 137.843 193.081 137.843L189.28 107.66V95.9675L178.691 92.4326Z" fill="#FFB9B9"/>
<path d="M225.39 87.2664L227.834 96.7834L238.965 123.703C238.965 123.703 246.567 136.483 240.323 136.211C234.078 135.939 234.078 123.703 234.078 123.703L221.318 101.95V89.7136L225.39 87.2664Z" fill="#FFB9B9"/>
<path d="M227.291 166.666L218.331 175.095C218.331 175.095 212.086 173.736 209.643 181.078C207.199 188.419 205.57 193.042 205.57 193.042L208.828 194.945L212.901 189.235C212.901 189.235 215.345 199.568 217.788 200.384C220.232 201.199 232.449 206.638 231.363 200.384L225.39 191.682C225.39 191.682 224.576 181.893 227.019 181.078C229.463 180.262 235.979 172.104 235.979 172.104L227.291 166.666Z" fill="#2F2E41"/>
<path d="M192.651 114.73C192.651 114.73 218.172 105.485 219.801 106.3C221.014 106.837 222.305 107.173 223.625 107.294L223.602 103.581C223.602 103.581 215.185 100.59 210.57 102.494C205.954 104.397 191.836 112.826 191.836 112.826L192.651 114.73Z" fill="#3F3D56"/>
<path d="M208.15 76.5257C208.15 76.5257 200.819 68.0962 198.647 62.9298C197.273 59.7978 194.75 57.3137 191.6 55.9902C191.6 55.9902 175.298 59.6668 175.569 66.1928C175.841 72.7188 185.886 82.7797 185.886 82.7797C185.886 82.7797 184.529 118.945 191.859 118.401C193.44 116.511 194.556 114.276 195.117 111.875C195.932 108.068 221.182 103.989 221.182 103.989C221.182 103.989 223.354 107.796 223.625 106.165C223.897 104.533 221.453 64.5613 221.453 64.5613L208.506 55.9902L208.15 76.5257Z" fill="#D0CDE1"/>
<path d="M177.66 63.5661L177.479 63.6683C176.898 63.9944 176.415 64.4694 176.079 65.0445C175.743 65.6196 175.566 66.274 175.566 66.9403L175.569 87.1201C175.567 87.6686 175.446 88.2101 175.214 88.7071C174.982 89.204 174.645 89.6444 174.226 89.9978C173.18 90.8888 172.21 92.1726 174.212 92.8408C177.47 93.9284 190.23 99.3668 190.502 97.4634C190.773 95.5599 191.316 93.3846 190.502 93.3846C189.864 93.3846 186.065 73.886 183.012 65.5491C182.826 65.0387 182.531 64.5749 182.148 64.1899C181.765 63.8049 181.303 63.5079 180.794 63.3193C180.285 63.1307 179.741 63.0551 179.2 63.0977C178.659 63.1403 178.134 63.3002 177.66 63.5661V63.5661Z" fill="#D0CDE1"/>
<path d="M217.788 63.6096L221.589 64.6973L225.933 83.4596C225.933 83.4596 231.092 84.5472 229.463 86.4506C227.834 88.3541 221.046 93.2486 221.046 93.2486L217.788 63.6096Z" fill="#D0CDE1"/>
<path d="M196.022 25.1239C196.873 23.9791 197.976 23.0462 199.246 22.3975C200.515 21.7488 201.916 21.4016 203.341 21.3831H203.689C210.384 21.3831 215.812 27.4509 215.812 34.936V34.936H213.568L213.206 32.174L212.675 34.936H199.369L198.254 32.5993L198.533 34.936H195.915C194.694 41.0115 196.449 47.087 201.18 53.1624H196.721L194.492 48.489L195.049 53.1624H186.549L184.877 42.4135C184.877 34.3635 189.547 27.5374 196.022 25.1239Z" fill="#2F2E41"/>
</g>
<defs>
<clipPath id="clip0">
<rect width="426" height="320" fill="white"/>
</clipPath>
</defs>
</svg>
