<svg width="579" height="416" viewBox="0 0 579 416" fill="none" xmlns="http://www.w3.org/2000/svg">
<g clip-path="url(#clip0)">
<path d="M0 415.72H93.1337" stroke="#3F3D56" stroke-miterlimit="10"/>
<path d="M538.943 71.6481H147.217C141.207 71.6481 136.334 76.5187 136.334 82.5269V340.625C136.334 346.633 141.207 351.504 147.217 351.504H538.943C544.953 351.504 549.826 346.633 549.826 340.625V82.5269C549.826 76.5187 544.953 71.6481 538.943 71.6481Z" fill="#F2F2F2"/>
<path d="M526.319 53.9818H134.594C128.583 53.9818 123.711 58.8524 123.711 64.8607V322.959C123.711 328.967 128.583 333.838 134.594 333.838H526.319C532.33 333.838 537.202 328.967 537.202 322.959V64.8607C537.202 58.8524 532.33 53.9818 526.319 53.9818Z" stroke="#3F3D56" stroke-miterlimit="10"/>
<path d="M123.711 80.8123H537.202" stroke="#3F3D56" stroke-miterlimit="10"/>
<path opacity="0.3" d="M479.643 143.715H374.831C372.633 143.715 370.852 145.496 370.852 147.693V157.123C370.852 159.32 372.633 161.101 374.831 161.101H479.643C481.841 161.101 483.622 159.32 483.622 157.123V147.693C483.622 145.496 481.841 143.715 479.643 143.715Z" fill="#F50057"/>
<path opacity="0.3" d="M501.243 191.947H353.231C351.033 191.947 349.251 193.728 349.251 195.925V201.99C349.251 204.187 351.033 205.968 353.231 205.968H501.243C503.441 205.968 505.222 204.187 505.222 201.99V195.925C505.222 193.728 503.441 191.947 501.243 191.947Z" fill="#F50057"/>
<path opacity="0.3" d="M501.243 230.084H353.231C351.033 230.084 349.251 231.865 349.251 234.061V240.127C349.251 242.324 351.033 244.104 353.231 244.104H501.243C503.441 244.104 505.222 242.324 505.222 240.127V234.061C505.222 231.865 503.441 230.084 501.243 230.084Z" fill="#F50057"/>
<path opacity="0.3" d="M501.243 268.22H353.231C351.033 268.22 349.251 270.001 349.251 272.198V278.263C349.251 280.46 351.033 282.241 353.231 282.241H501.243C503.441 282.241 505.222 280.46 505.222 278.263V272.198C505.222 270.001 503.441 268.22 501.243 268.22Z" fill="#F50057"/>
<path d="M485.253 138.107H380.441C378.244 138.107 376.462 139.888 376.462 142.085V151.515C376.462 153.712 378.244 155.493 380.441 155.493H485.253C487.451 155.493 489.232 153.712 489.232 151.515V142.085C489.232 139.888 487.451 138.107 485.253 138.107Z" stroke="#3F3D56" stroke-miterlimit="10"/>
<path d="M506.854 186.339H358.841C356.644 186.339 354.862 188.12 354.862 190.316V196.382C354.862 198.579 356.644 200.359 358.841 200.359H506.854C509.051 200.359 510.833 198.579 510.833 196.382V190.316C510.833 188.12 509.051 186.339 506.854 186.339Z" stroke="#3F3D56" stroke-miterlimit="10"/>
<path d="M506.854 224.475H358.841C356.644 224.475 354.862 226.256 354.862 228.453V234.518C354.862 236.715 356.644 238.496 358.841 238.496H506.854C509.051 238.496 510.833 236.715 510.833 234.518V228.453C510.833 226.256 509.051 224.475 506.854 224.475Z" stroke="#3F3D56" stroke-miterlimit="10"/>
<path d="M506.854 262.612H358.841C356.644 262.612 354.862 264.393 354.862 266.59V272.655C354.862 274.852 356.644 276.633 358.841 276.633H506.854C509.051 276.633 510.833 274.852 510.833 272.655V266.59C510.833 264.393 509.051 262.612 506.854 262.612Z" stroke="#3F3D56" stroke-miterlimit="10"/>
<path opacity="0.3" d="M155.129 79.2193C159.777 79.2193 163.545 75.4529 163.545 70.8068C163.545 66.1607 159.777 62.3943 155.129 62.3943C150.482 62.3943 146.714 66.1607 146.714 70.8068C146.714 75.4529 150.482 79.2193 155.129 79.2193Z" fill="#F50057"/>
<path opacity="0.3" d="M178.693 79.2193C183.341 79.2193 187.109 75.4529 187.109 70.8068C187.109 66.1607 183.341 62.3943 178.693 62.3943C174.045 62.3943 170.278 66.1607 170.278 70.8068C170.278 75.4529 174.045 79.2193 178.693 79.2193Z" fill="#009688"/>
<path opacity="0.3" d="M202.257 79.2193C206.905 79.2193 210.673 75.4529 210.673 70.8068C210.673 66.1607 206.905 62.3943 202.257 62.3943C197.609 62.3943 193.842 66.1607 193.842 70.8068C193.842 75.4529 197.609 79.2193 202.257 79.2193Z" fill="#009688"/>
<path d="M158.496 75.8543C163.144 75.8543 166.911 72.0879 166.911 67.4418C166.911 62.7957 163.144 59.0293 158.496 59.0293C153.848 59.0293 150.08 62.7957 150.08 67.4418C150.08 72.0879 153.848 75.8543 158.496 75.8543Z" stroke="#3F3D56" stroke-miterlimit="10"/>
<path d="M182.06 75.8543C186.707 75.8543 190.475 72.0879 190.475 67.4418C190.475 62.7957 186.707 59.0293 182.06 59.0293C177.412 59.0293 173.644 62.7957 173.644 67.4418C173.644 72.0879 177.412 75.8543 182.06 75.8543Z" stroke="#3F3D56" stroke-miterlimit="10"/>
<path d="M205.624 75.8543C210.271 75.8543 214.039 72.0879 214.039 67.4418C214.039 62.7957 210.271 59.0293 205.624 59.0293C200.976 59.0293 197.208 62.7957 197.208 67.4418C197.208 72.0879 200.976 75.8543 205.624 75.8543Z" stroke="#3F3D56" stroke-miterlimit="10"/>
<path d="M254.353 322.06C252.944 315.572 252.57 306.711 253.044 300.547C253.044 300.547 245.92 269.26 240.314 266.341L240.312 266.342C240.226 266.453 237.506 270.018 237.161 281.05C236.81 292.257 232.841 299.611 232.841 299.611C232.841 299.611 234.125 313.581 233.391 322.06L254.353 322.06Z" fill="#009688"/>
<path d="M306.179 122.964H176.882C175.131 122.964 173.396 123.309 171.778 123.979C170.16 124.649 168.69 125.631 167.451 126.869C166.213 128.107 165.231 129.577 164.56 131.194C163.89 132.812 163.545 134.546 163.545 136.296V308.728C163.545 310.479 163.89 312.213 164.56 313.83C165.231 315.448 166.213 316.918 167.451 318.155C168.69 319.393 170.16 320.375 171.778 321.045C173.396 321.715 175.131 322.06 176.882 322.06H222.246C220.731 315.779 218.847 305.97 220.755 299.149L220.754 299.144L220.755 299.147C220.844 298.829 220.939 298.515 221.045 298.211C222.355 293.784 222.791 289.145 222.33 284.552C223.173 280.627 223.173 276.569 222.33 272.644C220.929 266.108 219.948 259.686 219.948 259.686C219.948 259.686 219.175 251.048 219.85 245.753C219.865 245.636 219.882 245.526 219.898 245.413C219.66 245.359 219.527 245.328 219.527 245.328C219.527 245.328 221.512 236.339 222.213 230.619C222.378 229.268 222.596 227.556 222.832 225.731C222.185 225.624 221.548 225.462 220.928 225.249C214.622 223.03 212.637 202.951 212.637 202.951V196.589C212.637 196.589 210.535 186.841 217.892 182.522C224.977 178.362 227.805 177.224 228.005 177.145C228.059 177.107 228.112 177.072 228.167 177.029C228.968 176.401 229.602 175.585 230.013 174.655C230.023 174.494 230.025 174.335 230.02 174.177C229.9 171.896 228.312 169.822 226.805 168.012C225.519 166.468 224.234 164.925 222.948 163.381C222.508 162.921 222.17 162.374 221.955 161.774C221.874 161.443 221.839 161.103 221.85 160.763C221.849 160.637 221.85 160.511 221.853 160.385C221.874 159.234 221.905 158.083 221.946 156.933C221.983 155.928 222.236 154.66 223.22 154.453C223.733 154.346 224.41 154.533 224.681 154.085C224.772 153.901 224.795 153.69 224.747 153.49C224.743 153.505 224.743 153.521 224.738 153.536C224.735 153.517 224.732 153.498 224.728 153.48C224.526 152.674 224.403 151.85 224.363 151.02C224.352 150.645 224.406 150.271 224.522 149.915C225.092 148.246 227.056 147.562 228.792 147.247C230.528 146.932 232.476 146.661 233.565 145.274C233.857 144.814 234.173 144.369 234.513 143.943C235.013 143.489 235.627 143.179 236.289 143.047C238.444 142.502 240.72 142.704 242.745 143.62C243.584 144.003 244.428 144.519 245.349 144.461C246.305 144.4 247.122 143.727 248.067 143.563C249.592 143.299 251.051 144.441 251.803 145.794C252.28 146.655 252.519 147.628 252.494 148.611C252.512 149.591 252.159 150.541 251.505 151.27C250.848 151.967 249.868 152.445 249.596 153.362C249.485 153.735 249.511 154.137 249.412 154.514C249.4 154.561 249.38 154.605 249.364 154.651C249.382 154.674 249.402 154.697 249.42 154.72C250.568 156.233 251.338 157.998 251.665 159.869C251.992 161.739 251.866 163.661 251.299 165.474C250.731 167.286 249.739 168.936 248.403 170.287C247.068 171.638 245.429 172.65 243.623 173.238C243.618 173.356 243.614 173.475 243.614 173.593C243.581 174.329 243.705 175.064 243.98 175.747C244.255 176.431 244.674 177.048 245.207 177.555L255.613 181.821C255.613 181.821 261.878 181.062 264.138 190.407C264.501 191.961 264.631 193.559 264.525 195.151C264.443 196.56 264.635 199.04 266.241 202.251C268.81 207.387 268.226 219.178 262.971 220.345C257.993 221.451 256.057 220.987 255.866 220.934L255.854 221.141C255.936 223.353 256.724 242.435 259.584 244.744C260.375 245.383 260.224 245.814 259.575 246.105L259.576 246.106C259.576 246.106 259.582 246.229 259.594 246.45C259.68 247.845 260.121 253.16 262.036 256.184C264.255 259.686 264.022 279.883 264.022 279.883L265.539 291.791C265.539 291.791 264.606 299.146 265.539 300.429C266.07 301.157 266.712 312.433 267.169 322.06H306.179C309.716 322.06 313.108 320.656 315.61 318.155C318.111 315.655 319.516 312.264 319.516 308.728V136.296C319.516 134.546 319.171 132.812 318.501 131.194C317.831 129.577 316.848 128.107 315.61 126.869C314.371 125.631 312.901 124.649 311.283 123.979C309.665 123.309 307.93 122.964 306.179 122.964V122.964Z" fill="#009688"/>
<path d="M292.714 107.822H163.417C156.051 107.822 150.08 113.791 150.08 121.154V293.586C150.08 300.949 156.051 306.918 163.417 306.918H292.714C300.08 306.918 306.051 300.949 306.051 293.586V121.154C306.051 113.791 300.08 107.822 292.714 107.822Z" stroke="#3F3D56" stroke-miterlimit="10"/>
<path d="M56.567 180.381C56.567 180.381 51.3357 178.835 50.2136 180.518C49.0915 182.2 51.7434 194.397 51.7434 194.397L63.2706 195.097L59.2478 184.942L56.567 180.381Z" fill="#2F2E41"/>
<path d="M16.2391 280.541C16.2391 280.541 26.7276 303.559 18.6502 302.835C10.5728 302.112 7.43829 280.541 7.43829 280.541H16.2391Z" fill="#A0616A"/>
<path d="M84.8365 278.143C84.8365 278.143 80.2352 303.014 87.8972 300.358C95.5591 297.701 93.3754 276.013 93.3754 276.013L84.8365 278.143Z" fill="#A0616A"/>
<path d="M54.3355 174.61C54.3355 174.61 54.2149 186.179 58.6756 186.782C63.1363 187.384 56.1439 193.531 56.1439 193.531L48.187 195.097L36.734 194.254L31.6705 187.746C31.6705 187.746 40.5918 183.528 36.734 170.392L54.3355 174.61Z" fill="#A0616A"/>
<path opacity="0.1" d="M54.3355 174.61C54.3355 174.61 54.2149 186.179 58.6756 186.782C63.1363 187.384 56.1439 193.531 56.1439 193.531L48.187 195.097L36.734 194.254L31.6705 187.746C31.6705 187.746 40.5918 183.528 36.734 170.392L54.3355 174.61Z" fill="black"/>
<path d="M74.8304 272.466C74.8304 272.466 80.4966 284.638 76.036 322.841C76.036 322.841 77.3621 336.338 76.2771 338.869C75.1921 341.4 66.2707 375.746 66.2707 375.746C66.2707 375.746 54.8177 378.276 53.2504 370.684C53.2504 370.684 54.8177 359.838 54.6971 358.151C54.5766 356.464 57.2289 338.025 57.2289 338.025L51.8037 302.353L47.7047 334.53C47.7047 334.53 47.7047 343.81 46.3786 345.858C45.0525 347.907 46.3786 389.123 46.3786 389.123C46.3786 389.123 50.1159 395.389 44.4497 395.51C38.7834 395.63 33.72 395.389 33.2377 391.412C32.7554 387.435 32.5144 383.458 31.3088 381.048C30.1032 378.638 28.5359 351.041 28.8976 341.4C29.2593 331.758 20.9408 282.228 23.593 277.046C26.2453 271.864 74.8304 272.466 74.8304 272.466Z" fill="#2F2E41"/>
<path d="M48.187 178.948C56.1769 178.948 62.654 172.474 62.654 164.487C62.654 156.5 56.1769 150.025 48.187 150.025C40.1971 150.025 33.72 156.5 33.72 164.487C33.72 172.474 40.1971 178.948 48.187 178.948Z" fill="#A0616A"/>
<path d="M33.72 187.987C33.72 187.987 42.5207 194.495 55.2999 189.313C55.2999 189.313 59.5195 187.264 59.1578 184.13C58.7961 180.997 67.9586 209.318 67.9586 209.318L77.2416 258.607L76.7593 278.733C76.7593 278.733 72.6603 276.684 59.8811 281.264C47.102 285.843 26.2454 276.082 26.2454 276.082L26.9687 224.382L27.6921 194.254L29.621 187.625C29.621 187.625 30.5854 185.818 33.72 187.987Z" fill="#F2F2F2"/>
<path d="M54.7375 179.897C54.7375 179.897 56.8672 179.551 58.9167 182.805C60.9662 186.059 65.7885 188.107 65.7885 188.107C65.7885 188.107 77.4827 188.831 79.1705 195.097C80.8583 201.364 85.0778 209.92 87.1273 225.707C89.1768 241.495 93.2758 266.682 93.8786 268.73C94.4814 270.779 93.0347 277.046 94.7225 278.974C96.4103 280.902 82.7872 280.902 82.7872 280.902C82.7872 280.902 81.5816 271.02 80.7377 271.02C79.8938 271.02 80.1349 277.648 80.9788 282.469C81.8227 287.289 74.8304 282.469 74.8304 282.469C74.8304 282.469 69.4052 260.415 64.2212 240.53C59.0372 220.646 56.0233 209.679 56.9877 205.22C57.9522 200.761 60.6045 187.987 58.6755 186.782C56.7466 185.577 54.7375 179.897 54.7375 179.897Z" fill="#2F2E41"/>
<path d="M37.352 179.886C37.352 179.886 34.2022 181.6 26.2454 187.264C18.2885 192.928 12.8634 197.266 12.8634 197.266C12.8634 197.266 9.72888 199.677 7.79995 214.018C5.87102 228.359 1.53091 265.477 3.21873 270.177C4.90655 274.877 5.50934 277.648 4.90655 280.42C4.30375 283.192 17.5652 283.071 17.8063 282.469C18.0474 281.866 17.4446 270.9 18.0474 270.659C18.6502 270.418 21.9053 277.166 22.5081 282.83C23.1109 288.494 30.1033 292.953 31.6705 292.953C33.2378 292.953 41.3152 260.294 41.4357 238C41.5563 215.705 38.7835 196.905 36.734 194.254C34.6845 191.602 37.352 179.886 37.352 179.886Z" fill="#2F2E41"/>
<path d="M58.555 376.83C58.555 376.83 59.5194 374.179 62.8951 375.023C66.2707 375.866 68.5613 372.853 68.5613 372.853C68.5613 372.853 70.3697 372.612 69.1641 374.902C67.9585 377.192 66.9941 378.759 66.9941 378.759C66.9941 378.759 74.2276 395.269 69.5258 399.246C64.824 403.223 59.3989 400.812 59.3989 400.812C59.3989 400.812 54.0943 397.076 54.3355 387.194C54.3355 387.194 54.0943 384.061 51.2009 379C48.3075 373.938 46.1375 366.225 49.6337 364.779C53.1299 363.333 54.0297 363.279 54.0297 363.279C54.0297 363.279 52.3937 370.759 56.6197 373.373L58.555 376.83Z" fill="#3F3D56"/>
<path d="M36.1312 395.51C36.1312 395.51 33.2378 390.087 38.0601 389.484C42.8824 388.882 48.0664 388.52 47.8253 391.051C47.5842 393.582 46.9814 397.438 46.9814 397.438L47.8253 400.21C47.8253 400.21 48.0664 407.079 48.9103 407.923C49.7542 408.766 54.3355 415.997 44.5702 415.997C34.805 415.997 31.9116 414.912 32.7555 412.623C33.5994 410.333 33.8405 399.005 33.8405 399.005L36.1312 395.51Z" fill="#3F3D56"/>
<path d="M43.6058 152.918C43.6058 152.918 50.357 154.725 53.8532 155.448C57.3494 156.172 56.9877 154.123 56.9877 154.123C56.9877 154.123 61.569 154.725 61.3278 154.243C61.0867 153.761 63.2568 151.231 60.7251 148.338C58.1933 145.446 58.9167 143.277 58.9167 143.277H56.7466L56.1438 142.433H52.7682C52.7682 142.433 50.2365 141.469 43.6058 142.433C36.975 143.397 27.9332 143.638 27.2098 147.615C26.4865 151.592 22.7492 156.533 24.0753 158.823C25.4014 161.113 32.9966 170.513 33.72 174.489C34.4433 178.466 37.8208 179.35 37.6993 176.859C37.5778 174.369 34.2022 165.692 37.0956 165.331C39.989 164.969 44.9319 157.618 43.6058 152.918Z" fill="#2F2E41"/>
</g>
<defs>
<clipPath id="clip0">
<rect width="579" height="416" fill="white"/>
</clipPath>
</defs>
</svg>
